<?xml version="1.0" encoding="UTF-8" standalone="no"?>
<svg
   xmlns:dc="http://purl.org/dc/elements/1.1/"
   xmlns:cc="http://creativecommons.org/ns#"
   xmlns:rdf="http://www.w3.org/1999/02/22-rdf-syntax-ns#"
   xmlns:svg="http://www.w3.org/2000/svg"
   xmlns="http://www.w3.org/2000/svg"
   xmlns:sodipodi="http://sodipodi.sourceforge.net/DTD/sodipodi-0.dtd"
   xmlns:inkscape="http://www.inkscape.org/namespaces/inkscape"
   inkscape:version="1.0 (4035a4fb49, 2020-05-01)"
   sodipodi:docname="Fiverr Logo 09.2020.svg"
   id="svg8"
   style="color:#1dbf73;text-align:center;text-decoration:none;text-decoration-line:none;text-decoration-style:solid;text-decoration-color:#1dbf73;inline-size:89px;fill:none"
   version="1.1"
   fill="none"
   viewBox="0 0 400 121.34831"
   >
  <metadata
     id="metadata14">
    <rdf:RDF>
      <cc:Work
         rdf:about="">
        <dc:format>image/svg+xml</dc:format>
        <dc:type
           rdf:resource="http://purl.org/dc/dcmitype/StillImage" />
        <dc:title></dc:title>
      </cc:Work>
    </rdf:RDF>
  </metadata>
  <defs
     id="defs12" />
  <sodipodi:namedview
     inkscape:current-layer="svg8"
     inkscape:window-maximized="1"
     inkscape:window-y="-8"
     inkscape:window-x="-8"
     inkscape:cy="127.26549"
     inkscape:cx="202.2744"
     inkscape:zoom="1.2935393"
     fit-margin-bottom="0"
     fit-margin-right="0"
     fit-margin-left="0"
     fit-margin-top="0"
     showgrid="false"
     id="namedview10"
     inkscape:window-height="837"
     inkscape:window-width="1600"
     inkscape:pageshadow="2"
     inkscape:pageopacity="0"
     guidetolerance="10"
     gridtolerance="10"
     objecttolerance="10"
     borderopacity="1"
     bordercolor="#666666"
     pagecolor="#ffffff" />
  <path
     d="m 366.74157,58.876401 h -13.93258 c -8.98877,0 -13.93259,6.741572 -13.93259,18.426965 V 119.10112 H 311.91011 V 58.876401 h -11.23595 c -8.98877,0 -13.93259,6.741572 -13.93259,18.426965 V 119.10112 H 259.77528 V 36.404491 h 26.96629 v 12.58427 c 4.49439,-9.887641 10.33708,-12.58427 19.32585,-12.58427 h 32.80898 v 12.58427 c 4.49439,-9.887641 10.33708,-12.58427 19.32585,-12.58427 h 8.98876 z M 253.48315,84.044939 h -55.73034 c 1.34832,9.438202 7.19101,14.382022 16.62922,14.382022 7.19101,0 12.13483,-3.146067 13.93258,-8.089887 l 23.82022,6.741572 c -5.84269,14.382024 -20.22471,22.921344 -37.7528,22.921344 -29.21349,0 -42.69663,-22.921344 -42.69663,-42.696624 0,-19.325842 11.68539,-42.247189 40.89887,-42.247189 31.01124,0 41.34832,23.370785 41.34832,40.898875 0,4.044943 0,6.292134 -0.44944,8.089887 z M 227.86517,68.314603 c -0.44944,-7.191011 -5.84269,-13.483146 -14.83146,-13.483146 -8.53932,0 -13.48314,3.595505 -15.2809,13.483146 z M 124.94383,119.10112 h 23.37078 L 177.97753,36.85393 H 151.01124 L 136.62922,84.943815 122.2472,36.404491 H 95.28091 Z m -109.662917,0 H 41.797766 V 58.876401 H 67.415742 V 119.10112 H 93.932595 V 36.404491 H 41.797766 v -4.94382 c 0,-5.393258 4.044944,-8.988763 9.88764,-8.988763 H 67.415742 V 0 H 47.640462 C 28.31462,0 15.280913,12.134829 15.280913,29.662919 v 6.741572 H 0 v 22.47191 h 15.280913 z"
     style="color:#1dbf73;text-align:center;text-decoration:none;text-decoration-line:none;text-decoration-style:solid;text-decoration-color:#1dbf73;fill:#404145;stroke-width:4.49438"
     id="path2" />
  <path
     d="m 383.37078,121.34831 c 8.98877,0 16.62922,-7.64045 16.62922,-16.62921 0,-8.988768 -7.64045,-16.629217 -16.62922,-16.629217 -8.98876,0 -16.62921,7.640449 -16.62921,16.629217 0,8.98876 7.64045,16.62921 16.62921,16.62921 z"
     style="color:#1dbf73;text-align:center;text-decoration:none;text-decoration-line:none;text-decoration-style:solid;text-decoration-color:#1dbf73;fill:#1dbf73;stroke-width:4.49438"
     id="path5" />
</svg>
